<mxfile host="app.diagrams.net" modified="2024-05-19T11:46:43.746Z" agent="Mozilla/5.0 (Macintosh; Intel Mac OS X 10_15_7) AppleWebKit/537.36 (KHTML, like Gecko) Chrome/118.0.0.0 Safari/537.36" etag="mRKmI07zYIZOdjhqH4ck" version="24.4.4" type="device">
  <diagram id="C5RBs43oDa-KdzZeNtuy" name="Page-1">
    <mxGraphModel dx="792" dy="1131" grid="1" gridSize="10" guides="1" tooltips="1" connect="1" arrows="1" fold="1" page="1" pageScale="1" pageWidth="827" pageHeight="1169" math="0" shadow="0">
      <root>
        <mxCell id="WIyWlLk6GJQsqaUBKTNV-0" />
        <mxCell id="WIyWlLk6GJQsqaUBKTNV-1" parent="WIyWlLk6GJQsqaUBKTNV-0" />
        <mxCell id="oYCnqNCG3tcvW0_Qxisk-0" value="&amp;lt;&amp;lt;create&amp;gt;&amp;gt;" style="edgeStyle=orthogonalEdgeStyle;rounded=0;orthogonalLoop=1;jettySize=auto;html=1;exitX=0.5;exitY=0;exitDx=0;exitDy=0;entryX=0.5;entryY=1;entryDx=0;entryDy=0;endArrow=open;endFill=0;dashed=1;" parent="WIyWlLk6GJQsqaUBKTNV-1" source="oYCnqNCG3tcvW0_Qxisk-15" target="oYCnqNCG3tcvW0_Qxisk-5" edge="1">
          <mxGeometry relative="1" as="geometry">
            <mxPoint x="365.0000000000001" y="790" as="sourcePoint" />
          </mxGeometry>
        </mxCell>
        <mxCell id="oYCnqNCG3tcvW0_Qxisk-5" value="Pop3Agent" style="swimlane;fontStyle=0;align=center;verticalAlign=top;childLayout=stackLayout;horizontal=1;startSize=26;horizontalStack=0;resizeParent=1;resizeLast=0;collapsible=1;marginBottom=0;rounded=0;shadow=0;strokeWidth=1;" parent="WIyWlLk6GJQsqaUBKTNV-1" vertex="1">
          <mxGeometry x="170" y="510" width="390" height="216" as="geometry">
            <mxRectangle x="340" y="380" width="170" height="26" as="alternateBounds" />
          </mxGeometry>
        </mxCell>
        <mxCell id="oYCnqNCG3tcvW0_Qxisk-6" value="- store: Store" style="text;align=left;verticalAlign=top;spacingLeft=4;spacingRight=4;overflow=hidden;rotatable=0;points=[[0,0.5],[1,0.5]];portConstraint=eastwest;" parent="oYCnqNCG3tcvW0_Qxisk-5" vertex="1">
          <mxGeometry y="26" width="390" height="26" as="geometry" />
        </mxCell>
        <mxCell id="oYCnqNCG3tcvW0_Qxisk-7" value="- host: String" style="text;align=left;verticalAlign=top;spacingLeft=4;spacingRight=4;overflow=hidden;rotatable=0;points=[[0,0.5],[1,0.5]];portConstraint=eastwest;" parent="oYCnqNCG3tcvW0_Qxisk-5" vertex="1">
          <mxGeometry y="52" width="390" height="26" as="geometry" />
        </mxCell>
        <mxCell id="oYCnqNCG3tcvW0_Qxisk-8" value="- userid: String" style="text;align=left;verticalAlign=top;spacingLeft=4;spacingRight=4;overflow=hidden;rotatable=0;points=[[0,0.5],[1,0.5]];portConstraint=eastwest;" parent="oYCnqNCG3tcvW0_Qxisk-5" vertex="1">
          <mxGeometry y="78" width="390" height="26" as="geometry" />
        </mxCell>
        <mxCell id="oYCnqNCG3tcvW0_Qxisk-9" value="- password: String" style="text;align=left;verticalAlign=top;spacingLeft=4;spacingRight=4;overflow=hidden;rotatable=0;points=[[0,0.5],[1,0.5]];portConstraint=eastwest;" parent="oYCnqNCG3tcvW0_Qxisk-5" vertex="1">
          <mxGeometry y="104" width="390" height="26" as="geometry" />
        </mxCell>
        <mxCell id="HVzvI7eKAE97VWzugnbx-0" value="- request: HttpServletRequest" style="text;align=left;verticalAlign=top;spacingLeft=4;spacingRight=4;overflow=hidden;rotatable=0;points=[[0,0.5],[1,0.5]];portConstraint=eastwest;" parent="oYCnqNCG3tcvW0_Qxisk-5" vertex="1">
          <mxGeometry y="130" width="390" height="26" as="geometry" />
        </mxCell>
        <mxCell id="oYCnqNCG3tcvW0_Qxisk-10" value="" style="line;html=1;strokeWidth=1;align=left;verticalAlign=middle;spacingTop=-1;spacingLeft=3;spacingRight=3;rotatable=0;labelPosition=right;points=[];portConstraint=eastwest;" parent="oYCnqNCG3tcvW0_Qxisk-5" vertex="1">
          <mxGeometry y="156" width="390" height="8" as="geometry" />
        </mxCell>
        <mxCell id="oYCnqNCG3tcvW0_Qxisk-11" value="+ deleteMessage(int, boolean, String): boolean" style="text;align=left;verticalAlign=top;spacingLeft=4;spacingRight=4;overflow=hidden;rotatable=0;points=[[0,0.5],[1,0.5]];portConstraint=eastwest;" parent="oYCnqNCG3tcvW0_Qxisk-5" vertex="1">
          <mxGeometry y="164" width="390" height="26" as="geometry" />
        </mxCell>
        <mxCell id="HVzvI7eKAE97VWzugnbx-1" value="+ setRequest(HttpServletRequest): void" style="text;align=left;verticalAlign=top;spacingLeft=4;spacingRight=4;overflow=hidden;rotatable=0;points=[[0,0.5],[1,0.5]];portConstraint=eastwest;" parent="oYCnqNCG3tcvW0_Qxisk-5" vertex="1">
          <mxGeometry y="190" width="390" height="26" as="geometry" />
        </mxCell>
        <mxCell id="oYCnqNCG3tcvW0_Qxisk-15" value="TrashController" style="swimlane;fontStyle=2;align=center;verticalAlign=top;childLayout=stackLayout;horizontal=1;startSize=26;horizontalStack=0;resizeParent=1;resizeLast=0;collapsible=1;marginBottom=0;rounded=0;shadow=0;strokeWidth=1;" parent="WIyWlLk6GJQsqaUBKTNV-1" vertex="1">
          <mxGeometry x="230" y="790" width="270" height="266" as="geometry">
            <mxRectangle x="230" y="140" width="160" height="26" as="alternateBounds" />
          </mxGeometry>
        </mxCell>
        <mxCell id="oYCnqNCG3tcvW0_Qxisk-16" value="- session: HttpSession" style="text;align=left;verticalAlign=top;spacingLeft=4;spacingRight=4;overflow=hidden;rotatable=0;points=[[0,0.5],[1,0.5]];portConstraint=eastwest;" parent="oYCnqNCG3tcvW0_Qxisk-15" vertex="1">
          <mxGeometry y="26" width="270" height="26" as="geometry" />
        </mxCell>
        <mxCell id="oYCnqNCG3tcvW0_Qxisk-17" value="- request: HttpServletRequest" style="text;align=left;verticalAlign=top;spacingLeft=4;spacingRight=4;overflow=hidden;rotatable=0;points=[[0,0.5],[1,0.5]];portConstraint=eastwest;" parent="oYCnqNCG3tcvW0_Qxisk-15" vertex="1">
          <mxGeometry y="52" width="270" height="26" as="geometry" />
        </mxCell>
        <mxCell id="oYCnqNCG3tcvW0_Qxisk-18" value="- deletedEmailsService: DeletedEmailsService" style="text;align=left;verticalAlign=top;spacingLeft=4;spacingRight=4;overflow=hidden;rotatable=0;points=[[0,0.5],[1,0.5]];portConstraint=eastwest;" parent="oYCnqNCG3tcvW0_Qxisk-15" vertex="1">
          <mxGeometry y="78" width="270" height="26" as="geometry" />
        </mxCell>
        <mxCell id="oYCnqNCG3tcvW0_Qxisk-19" value="- pageSize: int" style="text;align=left;verticalAlign=top;spacingLeft=4;spacingRight=4;overflow=hidden;rotatable=0;points=[[0,0.5],[1,0.5]];portConstraint=eastwest;" parent="oYCnqNCG3tcvW0_Qxisk-15" vertex="1">
          <mxGeometry y="104" width="270" height="26" as="geometry" />
        </mxCell>
        <mxCell id="oYCnqNCG3tcvW0_Qxisk-20" value="- DOWNLOAD_FOLDER: String" style="text;align=left;verticalAlign=top;spacingLeft=4;spacingRight=4;overflow=hidden;rotatable=0;points=[[0,0.5],[1,0.5]];portConstraint=eastwest;" parent="oYCnqNCG3tcvW0_Qxisk-15" vertex="1">
          <mxGeometry y="130" width="270" height="26" as="geometry" />
        </mxCell>
        <mxCell id="oYCnqNCG3tcvW0_Qxisk-21" value="" style="line;html=1;strokeWidth=1;align=left;verticalAlign=middle;spacingTop=-1;spacingLeft=3;spacingRight=3;rotatable=0;labelPosition=right;points=[];portConstraint=eastwest;" parent="oYCnqNCG3tcvW0_Qxisk-15" vertex="1">
          <mxGeometry y="156" width="270" height="8" as="geometry" />
        </mxCell>
        <mxCell id="oYCnqNCG3tcvW0_Qxisk-22" value="+ trash(int, Model): String" style="text;align=left;verticalAlign=top;spacingLeft=4;spacingRight=4;overflow=hidden;rotatable=0;points=[[0,0.5],[1,0.5]];portConstraint=eastwest;" parent="oYCnqNCG3tcvW0_Qxisk-15" vertex="1">
          <mxGeometry y="164" width="270" height="24" as="geometry" />
        </mxCell>
        <mxCell id="oYCnqNCG3tcvW0_Qxisk-23" value="+ trashDo(int, RedirectAttributes): String" style="text;align=left;verticalAlign=top;spacingLeft=4;spacingRight=4;overflow=hidden;rotatable=0;points=[[0,0.5],[1,0.5]];portConstraint=eastwest;" parent="oYCnqNCG3tcvW0_Qxisk-15" vertex="1">
          <mxGeometry y="188" width="270" height="26" as="geometry" />
        </mxCell>
        <mxCell id="oYCnqNCG3tcvW0_Qxisk-24" value="+ deleteMailDo(int, RedirectAttributes): String" style="text;align=left;verticalAlign=top;spacingLeft=4;spacingRight=4;overflow=hidden;rotatable=0;points=[[0,0.5],[1,0.5]];portConstraint=eastwest;" parent="oYCnqNCG3tcvW0_Qxisk-15" vertex="1">
          <mxGeometry y="214" width="270" height="26" as="geometry" />
        </mxCell>
        <mxCell id="oYCnqNCG3tcvW0_Qxisk-25" value="+ restoreMailDo(int, RedirectAttributes): String" style="text;align=left;verticalAlign=top;spacingLeft=4;spacingRight=4;overflow=hidden;rotatable=0;points=[[0,0.5],[1,0.5]];portConstraint=eastwest;" parent="oYCnqNCG3tcvW0_Qxisk-15" vertex="1">
          <mxGeometry y="240" width="270" height="26" as="geometry" />
        </mxCell>
        <mxCell id="nu8PTNFRMhGVlaZNzmkJ-0" value="MessageParser" style="swimlane;fontStyle=0;align=center;verticalAlign=top;childLayout=stackLayout;horizontal=1;startSize=26;horizontalStack=0;resizeParent=1;resizeLast=0;collapsible=1;marginBottom=0;rounded=0;shadow=0;strokeWidth=1;" vertex="1" parent="WIyWlLk6GJQsqaUBKTNV-1">
          <mxGeometry x="170" y="280" width="390" height="164" as="geometry">
            <mxRectangle x="340" y="380" width="170" height="26" as="alternateBounds" />
          </mxGeometry>
        </mxCell>
        <mxCell id="nu8PTNFRMhGVlaZNzmkJ-2" value="- message: Message" style="text;align=left;verticalAlign=top;spacingLeft=4;spacingRight=4;overflow=hidden;rotatable=0;points=[[0,0.5],[1,0.5]];portConstraint=eastwest;" vertex="1" parent="nu8PTNFRMhGVlaZNzmkJ-0">
          <mxGeometry y="26" width="390" height="26" as="geometry" />
        </mxCell>
        <mxCell id="nu8PTNFRMhGVlaZNzmkJ-3" value="- userid: String" style="text;align=left;verticalAlign=top;spacingLeft=4;spacingRight=4;overflow=hidden;rotatable=0;points=[[0,0.5],[1,0.5]];portConstraint=eastwest;" vertex="1" parent="nu8PTNFRMhGVlaZNzmkJ-0">
          <mxGeometry y="52" width="390" height="26" as="geometry" />
        </mxCell>
        <mxCell id="nu8PTNFRMhGVlaZNzmkJ-12" value="- fileName: String" style="text;align=left;verticalAlign=top;spacingLeft=4;spacingRight=4;overflow=hidden;rotatable=0;points=[[0,0.5],[1,0.5]];portConstraint=eastwest;" vertex="1" parent="nu8PTNFRMhGVlaZNzmkJ-0">
          <mxGeometry y="78" width="390" height="26" as="geometry" />
        </mxCell>
        <mxCell id="nu8PTNFRMhGVlaZNzmkJ-6" value="" style="line;html=1;strokeWidth=1;align=left;verticalAlign=middle;spacingTop=-1;spacingLeft=3;spacingRight=3;rotatable=0;labelPosition=right;points=[];portConstraint=eastwest;" vertex="1" parent="nu8PTNFRMhGVlaZNzmkJ-0">
          <mxGeometry y="104" width="390" height="8" as="geometry" />
        </mxCell>
        <mxCell id="nu8PTNFRMhGVlaZNzmkJ-7" value="+ deleteMessage(int, boolean, String): boolean" style="text;align=left;verticalAlign=top;spacingLeft=4;spacingRight=4;overflow=hidden;rotatable=0;points=[[0,0.5],[1,0.5]];portConstraint=eastwest;" vertex="1" parent="nu8PTNFRMhGVlaZNzmkJ-0">
          <mxGeometry y="112" width="390" height="26" as="geometry" />
        </mxCell>
        <mxCell id="nu8PTNFRMhGVlaZNzmkJ-13" value="+ getFileName(): String" style="text;align=left;verticalAlign=top;spacingLeft=4;spacingRight=4;overflow=hidden;rotatable=0;points=[[0,0.5],[1,0.5]];portConstraint=eastwest;" vertex="1" parent="nu8PTNFRMhGVlaZNzmkJ-0">
          <mxGeometry y="138" width="390" height="26" as="geometry" />
        </mxCell>
        <mxCell id="nu8PTNFRMhGVlaZNzmkJ-9" value="&amp;lt;&amp;lt;create&amp;gt;&amp;gt;" style="edgeStyle=orthogonalEdgeStyle;rounded=0;orthogonalLoop=1;jettySize=auto;html=1;exitX=0.5;exitY=0;exitDx=0;exitDy=0;endArrow=open;endFill=0;dashed=1;entryX=0.5;entryY=1;entryDx=0;entryDy=0;" edge="1" parent="WIyWlLk6GJQsqaUBKTNV-1" source="oYCnqNCG3tcvW0_Qxisk-5" target="nu8PTNFRMhGVlaZNzmkJ-0">
          <mxGeometry relative="1" as="geometry">
            <mxPoint x="610" y="534" as="sourcePoint" />
            <mxPoint x="365.7800000000001" y="457.586" as="targetPoint" />
          </mxGeometry>
        </mxCell>
      </root>
    </mxGraphModel>
  </diagram>
</mxfile>
